<?xml version="1.0" encoding="utf-8"?>
<!-- Generator: Adobe Illustrator 22.1.0, SVG Export Plug-In . SVG Version: 6.00 Build 0)  -->
<svg xmlns="http://www.w3.org/2000/svg" xmlns:xlink="http://www.w3.org/1999/xlink" version="1.1" id="Layer_1" x="0px" y="0px" viewBox="0 0 512 512" style="enable-background:new 0 0 512 512;" xml:space="preserve" width="512" height="512">
<style type="text/css">
	.st0{fill:#DB9C2E;}
	.st1{fill:#BF6C0D;}
	.st2{fill:#F9BB32;}
	.st3{fill:#FCE575;}
	.st4{fill:#FFD551;}
	.st5{fill:#FFC34C;}
	.st6{fill:#FFDF74;}
	.st7{fill:#FFA730;}
	.st8{fill:#FFF4C1;}
	.st9{fill:#FFEACF;}
	.st10{fill:#FF624B;}
	.st11{fill:#CCC033;}
	.st12{fill:#8C4C17;}
	.st13{fill:#FFD59A;}
	.st14{fill:#99AF17;}
	.st15{fill:#FCF9DE;}
	.st16{fill:#E58D23;}
	.st17{fill:#A56021;}
	.st18{fill:#FF4B34;}
	.st19{fill:#FF9079;}
	.st20{fill:#EACF32;}
	.st21{fill:#FFB74B;}
	.st22{fill:#FCDA4F;}
	.st23{fill:#FFEA63;}
</style>
<g>
	<g>
		<g>
			<path class="st8" d="M450.667,46.667H61.333c-13.807,0-25,11.193-25,25v101.462c0,13.807,11.193,25,25,25h146.072l39.557,45.616     c4.08,4.705,12.459,4.584,16.345-0.236l36.591-45.38h150.769c13.807,0,25-11.193,25-25V71.667     C475.667,57.86,464.474,46.667,450.667,46.667z"/>
		</g>
	</g>
	<g>
		<g>
			<path class="st5" d="M79.796,88.275l-7.535,15.268c-0.778,1.577-2.283,2.67-4.023,2.923l-16.85,2.448     c-3.506,0.509-4.906,4.818-2.369,7.29l12.193,11.885c1.259,1.227,1.834,2.996,1.537,4.729l-2.878,16.782     c-0.599,3.492,3.066,6.154,6.202,4.506l15.071-7.923c1.556-0.818,3.416-0.818,4.972,0l15.071,7.923     c3.136,1.649,6.8-1.014,6.202-4.506l-2.878-16.782c-0.297-1.733,0.277-3.502,1.537-4.729l12.193-11.885     c2.537-2.473,1.137-6.781-2.369-7.29l-16.85-2.448c-1.74-0.253-3.245-1.346-4.023-2.923l-7.535-15.268     C85.894,85.099,81.364,85.099,79.796,88.275z"/>
		</g>
	</g>
	<g>
		<g>
			<path class="st5" d="M164.813,88.275l-7.535,15.268c-0.778,1.577-2.283,2.67-4.023,2.923l-16.85,2.448     c-3.506,0.509-4.906,4.818-2.369,7.29l12.193,11.885c1.259,1.227,1.834,2.996,1.537,4.729l-2.878,16.782     c-0.599,3.492,3.066,6.154,6.202,4.506l15.071-7.923c1.556-0.818,3.416-0.818,4.972,0l15.071,7.923     c3.136,1.649,6.8-1.014,6.202-4.506l-2.878-16.782c-0.297-1.733,0.277-3.502,1.537-4.729l12.193-11.885     c2.537-2.473,1.137-6.781-2.369-7.29l-16.85-2.448c-1.74-0.253-3.245-1.346-4.023-2.923l-7.535-15.268     C170.91,85.099,166.38,85.099,164.813,88.275z"/>
		</g>
	</g>
	<g>
		<g>
			<path class="st5" d="M249.829,88.275l-7.535,15.268c-0.778,1.577-2.283,2.67-4.023,2.923l-16.85,2.448     c-3.506,0.509-4.906,4.818-2.369,7.29l12.193,11.885c1.259,1.227,1.834,2.996,1.537,4.729l-2.878,16.782     c-0.599,3.492,3.066,6.154,6.202,4.506l15.071-7.923c1.556-0.818,3.416-0.818,4.972,0l15.071,7.923     c3.136,1.649,6.8-1.014,6.202-4.506l-2.878-16.782c-0.297-1.733,0.277-3.502,1.537-4.729l12.193-11.885     c2.537-2.473,1.137-6.781-2.369-7.29l-16.85-2.448c-1.74-0.253-3.245-1.346-4.023-2.923l-7.535-15.268     C255.927,85.099,251.397,85.099,249.829,88.275z"/>
		</g>
	</g>
	<g>
		<g>
			<path class="st5" d="M338.503,88.275l-7.535,15.268c-0.778,1.577-2.283,2.67-4.023,2.923l-16.85,2.448     c-3.506,0.509-4.906,4.818-2.369,7.29l12.193,11.885c1.259,1.227,1.834,2.996,1.537,4.729l-2.878,16.782     c-0.599,3.492,3.066,6.154,6.202,4.506l15.071-7.923c1.556-0.818,3.416-0.818,4.972,0l15.071,7.923     c3.136,1.649,6.8-1.014,6.202-4.506l-2.878-16.782c-0.297-1.733,0.277-3.502,1.537-4.729l12.193-11.885     c2.537-2.473,1.137-6.781-2.369-7.29l-16.85-2.448c-1.74-0.253-3.245-1.346-4.023-2.923l-7.535-15.268     C344.601,85.099,340.071,85.099,338.503,88.275z"/>
		</g>
	</g>
	<g>
		<g>
			<path class="st5" d="M426.262,88.275l-7.535,15.268c-0.778,1.577-2.283,2.67-4.023,2.923l-16.85,2.448     c-3.506,0.509-4.906,4.818-2.369,7.29l12.193,11.885c1.259,1.227,1.834,2.996,1.537,4.729l-2.878,16.782     c-0.599,3.492,3.066,6.154,6.202,4.506l15.071-7.923c1.556-0.818,3.416-0.818,4.972,0l15.071,7.923     c3.136,1.649,6.8-1.014,6.202-4.506l-2.878-16.782c-0.297-1.733,0.277-3.502,1.537-4.729l12.193-11.885     c2.537-2.473,1.137-6.781-2.369-7.29l-16.85-2.448c-1.74-0.253-3.245-1.346-4.023-2.923l-7.535-15.268     C432.36,85.099,427.83,85.099,426.262,88.275z"/>
		</g>
	</g>
	<g>
		<g>
			<g>
				<path class="st3" d="M247.405,198.128h-40l39.557,45.616c4.08,4.705,12.459,4.584,16.345-0.236l11.299-14.013L247.405,198.128z"/>
			</g>
		</g>
		<g>
			<g>
				<path class="st3" d="M76.333,173.128V71.667c0-13.807,11.193-25,25-25h-40c-13.807,0-25,11.193-25,25v101.462      c0,13.807,11.193,25,25,25h40C87.526,198.128,76.333,186.936,76.333,173.128z"/>
			</g>
		</g>
	</g>
	<g>
		<g>
			<path class="st21" d="M66.071,154.107l10.262-5.395V95.291l-4.073,8.253c-0.778,1.577-2.283,2.67-4.023,2.923l-16.85,2.448     c-3.506,0.509-4.906,4.818-2.369,7.29l12.193,11.885c1.259,1.227,1.834,2.996,1.537,4.729l-2.878,16.782     C59.271,153.093,62.936,155.755,66.071,154.107z"/>
		</g>
	</g>
	<g>
		<g>
			<path class="st9" d="M444.184,361.188c2.841-2.265,4.679-5.862,4.679-9.914v-4.966c0-10.636-8.157-19.259-18.219-19.259h-10.879     h-77.59c-6.487,0-11.746-5.559-11.746-12.416v-38.626c0-16.502-12.655-29.879-28.266-29.879c-7.035,0-12.738,6.028-12.738,13.465     v46.59c0,12.639-4.97,24.709-13.722,33.321l-16.836,16.568H157.33v99.743h101.537l17.381,14.299l0.002-0.023     c2.78,2.201,6.221,3.521,9.962,3.521h23.884h109.669h0.921c10.062,0,18.219-8.623,18.219-19.259V443.5     c0-1.702-0.325-3.323-0.912-4.799c-0.465-1.168-0.036-2.545,1.029-3.127c3.771-2.064,6.35-6.22,6.35-11.019v-15.921     c0-3.159-1.121-6.037-2.961-8.225c-0.836-0.994-0.753-2.517,0.168-3.423c2.3-2.264,3.742-5.486,3.742-9.071v-15.425     c0-2.923-0.959-5.604-2.56-7.722C442.915,363.65,443.105,362.048,444.184,361.188z"/>
		</g>
	</g>
	<g>
		<g>
			<g>
				<path class="st13" d="M302.162,246.128c-7.035,0-12.738,6.028-12.738,13.465v46.59c0,12.639-4.97,24.709-13.722,33.321      l-16.836,16.568h-15.452H157.33h-4.966v99.743h4.966h16.555h69.53V375.11c0-3.657,2.965-6.622,6.622-6.622h18.605      c4.345,0,8.515-1.708,11.612-4.755l12.004-11.813c8.751-8.612,13.722-20.682,13.722-33.321v-46.59      c0-7.436,5.703-13.465,12.738-13.465c2.41,0,4.749,0.321,6.983,0.921C320.634,251.427,311.985,246.128,302.162,246.128z"/>
			</g>
		</g>
	</g>
	<g>
		<g>
			<path class="st10" d="M212.022,481.922H88.151c-8.284,0-15-6.716-15-15V344.966c0-8.284,6.716-15,15-15h123.871     c8.284,0,15,6.716,15,15v121.956C227.022,475.206,220.307,481.922,212.022,481.922z"/>
		</g>
	</g>
	<g>
		<g>
			<path class="st18" d="M126.954,457.089c-6.857,0-12.416-5.559-12.416-12.416V329.966H85.567c-6.857,0-12.416,5.559-12.416,12.416     v127.123c0,6.857,5.559,12.416,12.416,12.416h129.039c6.857,0,12.416-5.559,12.416-12.416v-12.416H126.954z"/>
		</g>
	</g>
	<g>
		<g>
			<circle class="st18" cx="133.71" cy="410.417" r="13.091"/>
		</g>
	</g>
	<g>
		<g>
			<path class="st15" d="M411.697,461.904h-80.015c-3.313,0-6-2.686-6-6s2.687-6,6-6h80.015c3.313,0,6,2.686,6,6     S415.011,461.904,411.697,461.904z"/>
		</g>
	</g>
</g>
</svg>
